<svg width="200" height="200" viewBox="0 0 200 200" fill="none" xmlns="http://www.w3.org/2000/svg">
<rect width="200" height="200" rx="59" fill="#FFF3F3"/>
<g filter="url(#filter0_d_1_4)">
<path d="M152.033 59.5124C153.24 60.381 154.981 61.65 155.722 62.5993C156.009 62.9672 156.463 63.3403 156.833 64.4517C157.152 65.4082 156.953 65.2498 157.754 66.9455C160.204 69.0091 161.949 71.7593 163.303 74.6183C168.255 85.0727 172.378 97.843 169.503 109.523C166.596 121.333 161.1 130.623 153.404 139.94C150.022 144.033 145.476 147.072 141.997 151.073C138.08 155.577 132.513 158.051 128.09 161.897L128.054 161.928C124.724 164.824 122.457 166.795 117.985 166.795C111.258 166.795 103.822 165.814 97.2274 164.534C78.7195 160.943 59.3931 158.737 42.2158 150.148C24.0097 141.045 30.4325 121.633 30.4325 104.933C30.4325 99.1583 31.1761 92.8381 33.5496 87.4977C35.5602 82.9738 35.917 78.4257 38.7562 74.2415C40.5566 71.5883 41.2678 68.2714 43.1407 65.6781C44.8463 63.3165 47.0283 61.7774 48.313 59.0329C50.0782 55.2617 53.4416 50.8606 56.6709 48.2772C62.5397 43.5821 67.0794 39.2464 74.2431 37.0077C76.8852 36.182 79.3862 34.2331 82.1557 34.2331C85.7912 34.2331 88.9504 33 92.6374 33C98.7782 33 104.731 34.2331 110.723 34.2331C117.27 34.2331 124.093 39.4197 129.974 41.9402C136.276 44.6412 139.734 51.2135 145.457 54.5799C147.71 55.9055 149.918 57.9894 152.033 59.5124Z" fill="#ECE28A"/>
<path d="M157.754 66.9455C160.204 69.0091 161.949 71.7593 163.303 74.6183C168.255 85.0727 172.378 97.843 169.503 109.523C166.596 121.333 161.1 130.623 153.404 139.94C150.022 144.033 145.476 147.072 141.997 151.073C138.08 155.577 132.513 158.051 128.09 161.897C124.74 164.81 122.473 166.795 117.985 166.795C111.258 166.795 103.822 165.814 97.2274 164.534C78.7195 160.943 59.3931 158.737 42.2158 150.148C24.0097 141.045 30.4325 121.633 30.4325 104.933C30.4325 99.1583 31.1761 92.8381 33.5496 87.4977C35.5602 82.9738 35.917 78.4257 38.7562 74.2415C40.5566 71.5883 41.2678 68.2714 43.1407 65.6781C44.8463 63.3165 47.0283 61.7774 48.313 59.0329C50.0782 55.2617 53.4416 50.8606 56.6709 48.2772C62.5397 43.5821 67.0794 39.2464 74.2431 37.0077C76.8852 36.182 79.3862 34.2331 82.1557 34.2331C85.7912 34.2331 88.9504 33 92.6374 33C98.7782 33 104.731 34.2331 110.723 34.2331C117.27 34.2331 124.093 39.4197 129.974 41.9402C136.276 44.6412 139.734 51.2135 145.457 54.5799C147.71 55.9055 149.918 57.9894 152.033 59.5124C153.24 60.381 154.981 61.65 155.722 62.5993C156.009 62.9672 156.463 63.3403 156.833 64.4517C157.152 65.4082 156.953 65.2498 157.754 66.9455ZM157.754 66.9455C155.188 64.7845 152.13 64.1465 151.28 60.7456" stroke="black" stroke-width="3.70475" stroke-linecap="round"/>
<path d="M113.117 73.0368C114.198 72.9066 115.338 72.8261 116.451 72.7987L119.218 72.4603C121.893 72.4603 130.143 72.1486 131.789 74.3443C133.492 76.6145 131.55 82.2289 131.55 84.7917C131.55 94.9224 118.32 93.6494 111.682 91.4369C107.463 90.0305 104.421 87.2339 104.421 82.6337C104.421 81.2034 104.008 78.8175 105.037 77.6669C105.827 76.7838 106.855 76.227 107.366 75.0636C107.562 74.6182 108.17 74.232 109.042 73.9106C110.099 73.5207 111.545 73.2261 113.117 73.0368Z" fill="white"/>
<path d="M123.534 74.3101C123.233 71.9 108.494 72.5018 107.366 75.0636M107.366 75.0636C106.855 76.227 105.827 76.7838 105.037 77.6669C104.008 78.8175 104.421 81.2034 104.421 82.6337C104.421 87.2339 107.463 90.0305 111.682 91.4369C118.32 93.6494 131.55 94.9224 131.55 84.7917C131.55 82.2289 133.492 76.6145 131.789 74.3443C130.143 72.1486 121.893 72.4603 119.218 72.4603L116.451 72.7987L113.117 73.0368L109.042 73.9106L107.366 75.0636Z" stroke="black" stroke-width="3.70475" stroke-linecap="round"/>
<path d="M55.4035 79.5851C56.405 78.3611 60.8868 76.7763 62.4941 76.7763C74.3493 75.6649 77.5175 83.4505 76.7094 89.1077C76.0267 93.8864 69.1903 95.5716 65.3256 95.5716C60.5169 95.5716 52.629 91.3847 52.629 85.4083C52.629 82.8181 53.7586 81.5956 55.4035 79.5851Z" fill="white" stroke="black" stroke-width="3.70475" stroke-linecap="round"/>
<path d="M124.151 107.605C125.19 107.735 124.969 112.4 124.733 113.462C124.176 115.969 121.568 118.134 119.835 119.868C117.672 122.031 112.792 124.969 109.661 125.451C107.803 125.737 106.17 126.436 104.386 127.061C102.137 127.848 99.8754 127.571 97.6727 128.26C93.7829 129.475 87.8651 129.185 83.7999 129.185C80.3974 129.185 76.9948 129.185 73.5923 129.185C72.8596 129.185 70.6497 129.555 70.0299 129.048C66.1286 125.856 62.494 120.831 62.494 115.62" stroke="black" stroke-width="3.70475" stroke-linecap="round"/>
<path d="M128.124 130.76C125.009 128.778 120.451 124.76 120.451 120.553C119.859 121.364 113.607 124.182 107.189 126.321C100.521 128.544 91.4733 129.525 85.7017 129.285C86.6455 129.757 88.6872 133.09 89.1435 134.117C89.8108 135.619 89.752 138.729 90.7192 139.803C91.9473 141.168 91.9745 143.525 93.1854 144.736C94.1365 145.687 94.3732 146.796 95.4804 147.682C97.8449 149.573 101.635 153.647 105.037 153.847C109.272 154.096 112.991 152.614 117.06 152.614C120.416 152.614 125.022 148.751 127.542 146.791C130.412 144.559 133.399 143.731 133.399 139.666C133.399 135.762 131.548 132.939 128.124 130.76Z" fill="#ED6969" stroke="black" stroke-width="3.70475" stroke-linecap="round"/>
<path d="M121.068 78.626C118.116 78.626 116.412 79.3191 114.594 81.7431C113.877 82.6995 112.113 83.9313 111.854 85.1C111.53 86.5578 111.494 88.1436 111.066 89.5872C110.515 91.4481 109.44 95.8899 112.128 95.8899C114.273 95.8899 116.461 96.0159 118.602 95.8899C119.51 95.8365 121.685 90.5326 121.685 89.7242C121.685 86.4368 121.846 86.0248 118.465 86.0248C115.343 86.0248 112.571 92.455 115.245 94.6568C118.849 97.6249 121.01 96.5778 123.192 93.1496C125.435 89.6239 121.712 86.0248 118.465 86.0248C116.869 86.0248 114.679 85.6301 113.19 86.1619C111.942 86.6074 111.077 88.7318 110.278 89.69C107.091 93.5144 118.003 93.4237 119.218 93.4237C121.092 93.4237 122.669 93.8156 123.397 91.711C123.746 90.7026 123.832 88.356 123.157 87.532C120.279 84.0133 113.374 85.9882 111.203 89.2447C109.574 91.6881 112.834 91.5739 114.423 91.5739C118.626 91.5739 120.148 91.1658 123.157 88.4911C126.951 85.1194 119.404 84.361 117.643 86.0248C114.696 88.8077 118.393 91.1614 120.451 92.1905" stroke="black" stroke-width="3.70475" stroke-linecap="round"/>
<path d="M106.887 128.568C103.196 129.029 110.599 135.637 111.066 136.104C112.519 137.557 116.752 140.557 116.752 142.749" stroke="black" stroke-width="3.70475" stroke-linecap="round"/>
<path d="M74.796 84.3844C72.7508 84.5417 71.1573 86.3879 71.0103 88.4463C70.8577 90.5829 73.4589 91.4033 75.2022 91.4033C77.1484 91.4033 78.8904 90.4471 78.8904 88.2513C78.8904 85.7362 76.854 85.2918 74.5685 85.2618C69.6586 85.1971 66.3451 87.4569 62.6103 90.4447C60.9424 91.7791 59.9608 95.1535 62.8865 95.4977C67.2221 96.0078 73.0519 96.1742 76.7132 93.3206C78.6874 91.7819 79.0593 88.5688 78.8904 86.2041C78.7502 84.2413 74.8387 85.6286 74.0973 86.1229C72.1173 87.4429 71.0367 89.8864 71.3028 92.2807C71.4403 93.5189 73.9598 94.381 74.796 93.3855C76.1135 91.8171 76.2583 90.094 76.2583 88.0238C76.2583 85.123 72.1679 86.5304 70.5229 87.5039C67.5353 89.2721 64.273 92.6816 64.5763 96.4726C64.8468 99.8546 73.9403 99.2997 76.5507 99.2997" stroke="black" stroke-width="2.22285" stroke-linecap="round"/>
</g>
<defs>
<filter id="filter0_d_1_4" x="24.9685" y="31.1476" width="149.848" height="142.525" filterUnits="userSpaceOnUse" color-interpolation-filters="sRGB">
<feFlood flood-opacity="0" result="BackgroundImageFix"/>
<feColorMatrix in="SourceAlpha" type="matrix" values="0 0 0 0 0 0 0 0 0 0 0 0 0 0 0 0 0 0 127 0" result="hardAlpha"/>
<feOffset dy="2.51259"/>
<feGaussianBlur stdDeviation="1.25629"/>
<feComposite in2="hardAlpha" operator="out"/>
<feColorMatrix type="matrix" values="0 0 0 0 0 0 0 0 0 0 0 0 0 0 0 0 0 0 0.25 0"/>
<feBlend mode="normal" in2="BackgroundImageFix" result="effect1_dropShadow_1_4"/>
<feBlend mode="normal" in="SourceGraphic" in2="effect1_dropShadow_1_4" result="shape"/>
</filter>
</defs>
</svg>
